<?xml version="1.0" encoding="utf-8"?>
<svg version="1.1" id="Ebene_1" xmlns="http://www.w3.org/2000/svg" xmlns:xlink="http://www.w3.org/1999/xlink" x="0px" y="0px"
	 viewBox="0 0 16 16" style="enable-background:new 0 0 16 16;" xml:space="preserve">
<path fill="#FFFFFF" d="M1,1h14v14H1V1z"/>
<path fill="#999999" d="M1,1v14h14V1H1z M2,2h12v12H2V2z"/>
<path fill="#B9B9B9" d="M11.7,3.9H4.5c-0.3,0-0.3,0.3-0.3,0.3v8.6c0,0.3,0.3,0.3,0.3,0.3h7.1c0.2,0,0.2-0.3,0.2-0.3V4.2
	C12.1,3.9,11.7,3.9,11.7,3.9C11.7,3.7,11.7,3.7,11.7,3.9z M4.6,4.4h0.5v7.9H4.6V4.4z M6,4.4h5.2v7.9H6C6,12.3,6,4.4,6,4.4z M6.9,5.3
	h4v0.5h-4V5.3z"/>
<path fill="#00AFC8" d="M6,3.2v0.6H5.2V3"/>
</svg>
